<svg id="International_Pokémon_logo" xmlns="http://www.w3.org/2000/svg" xmlns:xlink="http://www.w3.org/1999/xlink" width="300.279" height="110.112" viewBox="0 0 300.279 110.112">
  <defs>
    <linearGradient id="linear-gradient" x1="25.037" y1="28.976" x2="24.442" y2="28.201" gradientUnits="objectBoundingBox">
      <stop offset="0" stop-color="#0070b6"/>
      <stop offset="1" stop-color="#1d2c5e"/>
    </linearGradient>
    <linearGradient id="linear-gradient-2" x1="18.122" y1="29.422" x2="18.675" y2="28.843" xlink:href="#linear-gradient"/>
    <linearGradient id="linear-gradient-3" x1="65.489" y1="44.191" x2="65.248" y2="43.377" xlink:href="#linear-gradient"/>
    <linearGradient id="linear-gradient-4" x1="66.706" y1="43.123" x2="66.608" y2="42.404" gradientUnits="objectBoundingBox">
      <stop offset="0" stop-color="#125d9e"/>
      <stop offset="1" stop-color="#1d2c5e"/>
    </linearGradient>
    <linearGradient id="linear-gradient-5" x1="34.472" y1="13.134" x2="33.407" y2="13.546" xlink:href="#linear-gradient-4"/>
    <linearGradient id="linear-gradient-6" x1="12.469" y1="28.839" x2="12.739" y2="29.608" gradientUnits="objectBoundingBox">
      <stop offset="0" stop-color="#105fa1"/>
      <stop offset="1" stop-color="#1d2c5e"/>
    </linearGradient>
    <linearGradient id="linear-gradient-7" x1="8.983" y1="13.799" x2="9.208" y2="14.299" xlink:href="#linear-gradient-6"/>
    <linearGradient id="linear-gradient-8" x1="35.749" y1="-69.75" x2="36.749" y2="-69.75" gradientUnits="objectBoundingBox">
      <stop offset="0" stop-color="#3c5aa6"/>
      <stop offset="0.933" stop-color="#2b73b9"/>
      <stop offset="1" stop-color="#2a75bb"/>
    </linearGradient>
    <linearGradient id="linear-gradient-9" x1="2.122" y1="-10.194" x2="3.122" y2="-10.194" xlink:href="#linear-gradient-8"/>
  </defs>
  <path id="polygon16" d="M5.451,38.677,18.852,61.3l5.35-5.1L9.616,34.446Z" transform="translate(-5.451 2.06)" fill="url(#linear-gradient)"/>
  <path id="polygon18" d="M184.062,22.569l-.518,2.982,6.41-2.068-.8-3.653Z" transform="translate(14.912 0.389)" fill="#0071b9"/>
  <path id="polygon25" d="M152.611,4.278,131.987,27.929l6-1.726L157.625,1.686Z" transform="translate(9.017 -1.686)" fill="url(#linear-gradient-2)"/>
  <path id="polygon27" d="M249.507,33.308l5.062-2.7-1.446,12.677Z" transform="translate(22.454 1.621)" fill="#1d2c5e"/>
  <path id="polygon29" d="M221.271,40.708l4.5.922,5.743-2.788-4.984-1.86Z" transform="translate(19.225 2.35)" fill="#1d2c5e"/>
  <path id="polygon36" d="M82.049,28.529l.72,14.69,6.28-2.537-1.88-14.9Z" transform="translate(3.307 1.069)" fill="url(#linear-gradient-3)"/>
  <path id="polygon43" d="M226.16,24.313,221.1,27.041l.185,15.116,5.088-2.608,1.6-7.317Z" transform="translate(19.206 0.901)" fill="url(#linear-gradient-4)"/>
  <path id="polygon45" d="M225.589,41.465l-5.566,49.443,8.9-1.755L230.664,38.8Z" transform="translate(19.083 2.557)" fill="#312370"/>
  <path id="polygon47" d="M236.485,88.2l.158,6.7,17.081,5.444,5.084-2.694-16.76-12.984-16.977-1.491-5.048,2.651Z" transform="translate(19.083 7.632)" fill="#21386e"/>
  <path id="polygon49" d="M180.177,78.353l4.2-2.261,2.676,4.943,3.956-2.174.788,6.517,24.832,4.4,4.962-2.729L187.346,66.189l-24.29,4.163-4.738,4.5Z" transform="translate(12.027 5.689)" fill="#21386e"/>
  <path id="polygon56" d="M172.27,22.514,167.3,25.25l-8.98,54.6,5.03-2.613,8.62-30.657Z" transform="translate(12.027 0.695)" fill="url(#linear-gradient-5)"/>
  <path id="polygon58" d="M135.646,29.8l-3.96,2.109.333,1.32,9.425-5.987-4.119-4.419-5.3,2.692Z" transform="translate(8.982 0.73)" fill="#1d2c5e"/>
  <path id="polygon60" d="M149.112,89.411l-40.5-20.059,5.084-3.843,40.45,21.181Z" transform="translate(6.345 5.611)" fill="#21386e"/>
  <path id="polygon62" d="M112.662,20.243,106.525,31.88l6.484-1.963,4.679-12.4Z" transform="translate(6.106 0.124)" fill="#1d2c5e"/>
  <path id="path69" d="M57.164,61.419l-5.177,3.554a82.54,82.54,0,0,0,2.515,9.8,21.556,21.556,0,0,0,4.814,7.272,18.588,18.588,0,0,0,7.824,4.546,21.9,21.9,0,0,0,17.738-2.964,33.583,33.583,0,0,0,4.63-3.548C84.054,83.384,57.164,61.419,57.164,61.419Z" transform="translate(5.944 7.022)" fill="url(#linear-gradient-6)"/>
  <path id="polygon71" d="M87.433,40.676,92.158,92.8l19.3-2.856,5.165-2.707L92.671,37.551l-4.929,1.66-5.047,2.662Z" transform="translate(3.381 2.415)" fill="#1d2c5e"/>
  <path id="polygon78" d="M22.518,57.172l21.569,48.917,20.492-6.61,5-3.363L27.05,51.615,21.728,54.8l-4.251,4.532Z" transform="translate(-4.076 4.023)" fill="url(#linear-gradient-7)"/>
  <path id="path80" d="M208.381,75.866l.29,2.4a23.86,23.86,0,0,0,5.206-.992c1.85-.633,5.868-2.423,7.4-3.741-.573.208-9.988,2.649-12.892,2.331" transform="translate(23.826 8.408)" fill="#1d2c5e"/>
  <path id="path82" d="M143.322,64.849l.769,3.867A29.885,29.885,0,0,0,155.3,64.46c2.2-1.308,4.608-3.282,5.369-3.808C160.131,61,143.322,64.849,143.322,64.849Z" transform="translate(16.387 6.935)" fill="#1d2c5e"/>
  <g id="g84" transform="translate(5.524 1.666)">
    <path id="path86" d="M50.5,106.989l-1.6-3.558L28.451,57.789l-.42-.936-.929.429-.621.285-3.641,1.787c-.537-.9-1.429-2.409-2.048-3.456L12.561,41.988l-2.153-3.632L13.969,36.1a78.238,78.238,0,0,1,11.312-5.9A63.094,63.094,0,0,1,49.6,24.833a42.5,42.5,0,0,1,7.258.6,23.292,23.292,0,0,1,10.28,3.636,22.6,22.6,0,0,1,9.715,10.675,20.017,20.017,0,0,1,.889,12.429l-.593,2.62,2.176-1.578a25.22,25.22,0,0,1,4.736-2.7,22.782,22.782,0,0,1,8.9-1.85,19.333,19.333,0,0,1,7.99,1.669l1.586.711-.159-1.731-.69-7.478-.111-1.186-1.154.3-3.464.9L96.35,29.115l25.378-8.108-.205,9.9,1.911.49,5.543-10.622,16.6,14.723.692.616.675-.635a26.018,26.018,0,0,1,8.011-5.1l1.27-.519-.87-1.062-2.993-3.648L171.421,3.181,181.4,18.074l-15.279,8.213-3.393,1.825,3.852.081a23.482,23.482,0,0,1,18.058,8.627l1.591,1.962,1.025,1.26-1.7,1.807-1.135,1.206L180.6,47.128l-.71.757.768.693,3.578,3.222,1.384,1.245.3-1.836,1.373-8.5.351-2.182.011.012.361-2.229,2.049-12.547h19.153l.145-.846.358-2.148h16.475l3.992,25.207.26,1.633,1.337-.971a23.044,23.044,0,0,1,5.311-2.871,21.947,21.947,0,0,1,7.764-1.448,18.981,18.981,0,0,1,8.732,2.074,1.368,1.368,0,0,0,.3.168l1.238.5.146-1.328.3-2.747.1-.9-.886-.2-3.341-.747L251.281,28l25.47,5.606,1.913,9.455,1.978.039,1.973-8.137,21.239,5.165L282.15,105.543l-15.532-4.877-.11-6.025-.016-.864-.857-.12-15.5-2.187.877-7.877.208-1.874-1.677.859a21.33,21.33,0,0,1-2.29,1.012,21.754,21.754,0,0,1-7.713,1.443,19.984,19.984,0,0,1-2.23-.124l-1.324-.148.207,1.315L237.287,93l-22.611-3.988-1.185-10.281-.381-3.3-1.523,2.945-2.6,5.02-4.793-8.848L202.75,71.9l-.455,2.986-1.044,6.849-19.817-3.119,1.537-9.4.351-2.155-1.873,1.12a40.177,40.177,0,0,1-11.385,4.474,31.124,31.124,0,0,1-4.8.773l-.929.078V92.175L125.31,72.887l-1.466-.723V73.8l.027,16.5-17.449,2.571-.733-7.922-.2-2.119-1.521,1.491a24.981,24.981,0,0,1-7.719,5.2,22.484,22.484,0,0,1-8.831,1.844,19.071,19.071,0,0,1-8.307-1.838,17.975,17.975,0,0,1-9.55-11.545A19.218,19.218,0,0,1,69,70.341l.344-2.808L67.3,69.483a49.4,49.4,0,0,1-4.627,3.882l-.552.407.174.663L68.172,97l1.039,4-3.936,1.251L54.207,105.8l-3.7,1.192h0Zm4.968-60.571a9.919,9.919,0,0,0-1.754.159l-.753.145-1.112.214.335,1.083.218.7L55.57,59.08l.316,1,.47,1.493,1.17-1.041.777-.692c3.068-2.757,4.143-5.556,3.5-9.086a5.129,5.129,0,0,0-2.991-3.615,7.64,7.64,0,0,0-3.337-.715h0Zm84.84.34-1.978,1.926-5.21,5.062-1.134,1.1,1.476.571,5.587,2.156,1.716.661-.354-1.8a23.949,23.949,0,0,1-.366-6.928l.262-2.747ZM163.061,41a7.824,7.824,0,0,0-6.825,11.577l.425.8.683,1.274.962-1.076.618-.685,7.642-8.725.6-.691.964-1.108-1.375-.509-.857-.316A7.785,7.785,0,0,0,163.061,41h0Z" transform="translate(-10.408 -3.181)" fill="#ffcb05"/>
  </g>
  <path id="path88" d="M152.458,47.032a1.257,1.257,0,0,0-.2.232c.077-.07.152-.131.231-.2Z" transform="translate(17.409 5.378)" fill="#7d7f68"/>
  <path id="polygon90" d="M164.05,43.659l3.817-4.072-1.306,1.386.038-.175-1.154,1.218-3.813,4.06L165.2,49.29l.647-4,1.779,1.592Z" transform="translate(12.406 2.647)" fill="#7d7f68"/>
  <path id="polygon92" d="M163.8,43.783,167.381,47l1.371-8.5-1.133,1.206Z" transform="translate(12.654 2.524)" fill="#7d7f68"/>
  <path id="path94" d="M115.715,47.522l.058.025Z" transform="translate(13.231 5.434)" fill="#7d7f68"/>
  <path id="path96" d="M134.987,52.331c.305.309.023.087.365.321l2.335-1.646a9.551,9.551,0,0,1-1.005-.8c-3.388-3.087-2.507-10.029-.31-13.829-5.785,4.667-5.484,11.851-1.385,15.956" transform="translate(15.088 4.159)" fill="#c7a008"/>
  <path id="path98" d="M164.227,56.4a33.322,33.322,0,0,1-14.057,6.672,27.541,27.541,0,0,1-3.73.61c-9.217.906-16.949-3.326-19.883-10.191a14.787,14.787,0,0,1-.86-2.571,18.171,18.171,0,0,1,2.658-15c.283-.392.581-.768.893-1.15-.146.125-.3.232-.417.349a18.926,18.926,0,0,0-2.9,3.218,18.106,18.106,0,0,0-2.649,14.991,14.525,14.525,0,0,0,.845,2.564c2.935,6.88,10.67,11.11,19.879,10.211a26.828,26.828,0,0,0,3.736-.627,33.287,33.287,0,0,0,14.061-6.663,30.909,30.909,0,0,0,2.731-2.543l-.081-.078c-.088.076-.154.142-.23.205" transform="translate(14.031 3.976)" fill="#c7a008"/>
  <path id="polygon100" d="M107.135,41.709l10.3-14.471-.418-.386-9.935,13.956Z" transform="translate(6.169 1.192)" fill="#c7a008"/>
  <path id="polygon102" d="M169,38.5,167.629,47l-1.779-1.592-.647,4L161.631,46.2l3.813-4.06,1.154-1.218-.038.175,1.306-1.386Z" transform="translate(12.406 2.524)" fill="#c7a008"/>
  <path id="polygon104" d="M157.353,18.142l3.606-1.547-6.591-8.459-2.16,3.017Z" transform="translate(11.329 -0.949)" fill="#c7a008"/>
  <path id="path106" d="M67.676,35.411c-16.644-20.275-46.634-9.377-57.413.107l.421.728a70.674,70.674,0,0,1,7.84-3.861c10.707-4.573,20.914-5.914,29.1-4.482a19.429,19.429,0,0,1,8.624,2.975,18.394,18.394,0,0,1,8.126,8.777c2.9,6.675.345,15.551-6.491,22.981C66.456,54.767,72.323,47.239,67.676,35.411Z" transform="translate(1.173 2.738)" fill="#c7a008"/>
  <path id="path108" d="M95.339,56.615a10.255,10.255,0,0,0-.275-1.1,13.871,13.871,0,0,0-5.591-7.853c-4.272-2.9-10.236-3.5-16.18-.988a22.378,22.378,0,0,0-8,5.917A21.912,21.912,0,0,1,70.88,49.1c5.931-2.517,11.894-1.922,16.181.976a13.983,13.983,0,0,1,5.594,7.849c.106.361.188.74.271,1.12a16.789,16.789,0,0,1,.323,3.9,20.455,20.455,0,0,1-3.955,11.123c-.386.528-.791,1.021-1.211,1.509A22.309,22.309,0,0,0,91.7,71.651a20.323,20.323,0,0,0,3.965-11.133,15.852,15.852,0,0,0-.324-3.9" transform="translate(7.466 5.156)" fill="#c7a008"/>
  <path id="path110" d="M77.761,51.24c-.023.037,2.415-2.416,2.387-2.416-3.05-.116-4.339,2.76-4.445,2.986a6.007,6.007,0,0,1,2.058-.571" transform="translate(8.656 5.582)" fill="#c7a008"/>
  <path id="path112" d="M82.727,54.4a4.337,4.337,0,0,1-.211,3.081c.488-.255,4.015-1.966,2.648-5.59.074.111-2.525,2.5-2.437,2.508" transform="translate(9.435 5.934)" fill="#c7a008"/>
  <path id="path114" d="M70.5,56.6c0-1.491,2.553-5.108,3.349-6.315-4.032,2.563-5.768,6.022-5.768,8.746,0,4.668,4.1,8.422,9.006,8.422a11.468,11.468,0,0,0,9.348-5.724c-1.456.958-5.158,3.252-7.1,3.252A8.561,8.561,0,0,1,70.5,56.6" transform="translate(7.785 5.75)" fill="#c7a008"/>
  <path id="polygon116" d="M106.678,61.731l.064,18.894,3,.172-.593-21.538Z" transform="translate(6.123 4.897)" fill="#c7a008"/>
  <path id="polygon118" d="M91.232,29.806l.061,1.678L105.5,27.253l1.053,18.1,2.371-3.323-.506-18.16Z" transform="translate(4.357 0.85)" fill="#c7a008"/>
  <path id="polygon120" d="M131.317,36.269,117.968,24.018l-1.6,3.545L128.118,38.6Z" transform="translate(7.231 0.867)" fill="#c7a008"/>
  <path id="path122" d="M124.353,54.346l-15.672-5.182L106.4,51.575l15.613,6.248a21.77,21.77,0,0,0,7.833,8.284,25.619,25.619,0,0,0,10.966,3.578V77.4l2.42,1.208L144,67.02,124.353,54.346Z" transform="translate(12.165 5.621)" fill="#c7a008"/>
  <path id="path124" d="M145.528,52.386a14.454,14.454,0,0,0,7.98-5.146c-1.434,1.177-8.624,2.744-9.832,3.152l-2.368,2.522a15.334,15.334,0,0,0,4.22-.528" transform="translate(16.157 5.401)" fill="#c7a008"/>
  <path id="path126" d="M139.983,28.011c-7.1.929-10.8,6.888-11.407,7.613a23.089,23.089,0,0,1,9.606-4.734c8.782-2.124,16.526.554,21.312,6.471l2.962-2.507c-4.74-5.815-13.692-8.96-22.472-6.843" transform="translate(14.701 3.127)" fill="#c7a008"/>
  <path id="path128" d="M161.056,55.1a39.149,39.149,0,0,0,3.186-2.3l-9.5-8.491a24.51,24.51,0,0,1-2.275,3.059l8.593,7.728Z" transform="translate(17.432 5.067)" fill="#c7a008"/>
  <path id="path130" d="M205.878,80.46c-9.97-8.195-9.374-25.767-4.48-31.342l-4.393-27.541-9.608,1.24-.428,2.426h7.27l3.85,24.988c-4.9,5.593-7.266,13.086-5.628,19.946a18.183,18.183,0,0,0,9.21,12.073c.471.259.958.484,1.456.7l.062.367,2.858.451s.3-3.066-.171-3.3Z" transform="translate(21.378 2.467)" fill="#c7a008"/>
  <path id="polygon132" d="M175.043,27l-.413,2.427h10.958l3.228,17.7,2.432-2.456L188.692,25.99Z" transform="translate(13.892 1.093)" fill="#c7a008"/>
  <path id="polygon134" d="M192.2,57.976l-3.538,9.14.876,2.378,5.06-13.919Z" transform="translate(15.497 4.476)" fill="#c7a008"/>
  <path id="polygon136" d="M182.925,52.564,180.489,55,177.878,71.5l2.5.955Z" transform="translate(14.264 4.131)" fill="#c7a008"/>
  <path id="path138" d="M223.3,46.709a12.82,12.82,0,0,1,3.578,3.861,13.643,13.643,0,0,1,1.627,3.959,17.975,17.975,0,0,1-3.389,14.635c-.318.437-.667.859-1,1.274,1.281-1.1,16.847-12.583,1.639-27.662-16.726-5.514-23.058,5.4-23.65,6.091a20.832,20.832,0,0,1,6.015-3.589c5.661-2.144,11.23-1.4,15.181,1.432" transform="translate(23.108 4.714)" fill="#c7a008"/>
  <path id="path140" d="M213.786,47.374c.047.106,2.4-2.454,2.449-2.454-2.976.123-4.406,1.559-4.259,2.222a4.016,4.016,0,0,0-.437.795,6.992,6.992,0,0,1,2.246-.563" transform="translate(24.187 5.136)" fill="#c7a008"/>
  <path id="path142" d="M218.6,50.729a4.5,4.5,0,0,1,.149,1.266,4.4,4.4,0,0,1-.395,1.593c.452-.2,4.06-1.324,2.682-5.293.036.113-2.476,2.436-2.437,2.434" transform="translate(24.966 5.522)" fill="#c7a008"/>
  <path id="path144" d="M212.365,63.5c3.366.144,7.089-1.924,9.759-5.579-6.851,1.405-14.053-10-13.331-11.12-2.589,1.877-4.88,5.5-4.984,8.025-.178,4.69,3.641,8.478,8.556,8.674" transform="translate(23.302 5.351)" fill="#c7a008"/>
  <path id="polygon146" d="M250.629,96.423l1.606,1.074,19.6-58.82-14.668-3.39-.184,3.446,11.832,2.625Z" transform="translate(22.582 2.156)" fill="#c7a008"/>
  <path id="polygon148" d="M229.742,29.629l.128,3.285,15.6,3.132,6,28.475,2.43-2.449L248.18,33.3Z" transform="translate(20.194 1.509)" fill="#c7a008"/>
  <path id="polygon150" d="M240.953,58.993l-4.294,24.284,2.473.8L243.394,56.6Z" transform="translate(20.985 4.593)" fill="#c7a008"/>
  <path id="polygon152" d="M59.918,91.25,52.624,64.8l-2.67,1.868,6.761,25.337Z" transform="translate(-0.363 5.531)" fill="#c7a008"/>
  <path id="path154" d="M53.306,52.471a55.57,55.57,0,0,1-7.537,6.623l-1.29-4.143-2.826-9.084-1.8-6.15L38.1,41.966l1.79,6.159L42.719,57.2,44,61.358c2.91-1.874,7.142-5.392,9.3-8.887" transform="translate(4.357 4.541)" fill="#c7a008"/>
  <path id="path156" d="M145.4,37.179c-2.3-.886-5.563-.62-7.323,1.307a13.219,13.219,0,0,0-1.456,2.1,7.74,7.74,0,0,1,6.727-.93Z" transform="translate(15.621 4.195)" fill="#7d7f68"/>
  <path id="path158" d="M50.566,44.828a4.4,4.4,0,0,0-2.243-2.739,8.686,8.686,0,0,0-4.664-.383c.265.916.569,1.99.7,2.43a9.33,9.33,0,0,1,2.1.5A3.549,3.549,0,0,1,48.5,47.049a7.276,7.276,0,0,1-.5,4.92c2.087-2.048,3.1-4.276,2.57-7.141" transform="translate(4.992 4.752)" fill="#7d7f68"/>
  <g id="g160" transform="translate(44.212 43.29)">
    <g id="g162">
      <path id="path164" d="M60.127,46.787c-1-5.376-8.031-8.339-15-4.538l1.8,6.152,2.826,9.092,1.289,4.141c5.228-3.362,10.484-7.4,9.089-14.847ZM53.2,55.053c-.761-2.484-2.43-7.847-2.43-7.847.008.025-.329-1.148-.728-2.489a6.676,6.676,0,0,1,4.065.4,3.491,3.491,0,0,1,2.051,2.411C56.741,50.623,55.7,52.83,53.2,55.053Z" transform="translate(-45.127 -40.534)" fill="#3c5aa6"/>
    </g>
  </g>
  <g id="g166" transform="translate(148.653 38.502)">
    <g id="g168">
      <path id="path170" d="M154.866,38.749a9.554,9.554,0,1,0-12.9,14.1,8.6,8.6,0,0,0,1.006.8l12.566-14.231C155.32,39.189,155.1,38.958,154.866,38.749ZM143,48.759a6.166,6.166,0,0,1,7.641-8.713Z" transform="translate(-138.852 -36.237)" fill="#3567b0"/>
    </g>
  </g>
  <path id="polygon172" d="M169.005,37.089l-6.959,6.7,6.611,5.937Z" transform="translate(12.454 2.362)" fill="#1e2d5f"/>
  <path id="path174" d="M222.437,48.7a4.63,4.63,0,0,1,.147,1.285,5.113,5.113,0,0,1-5.6,4.572c-2.977-.1-5.316-2.362-5.2-5.015a5.059,5.059,0,0,1,5.051-4.58,8.817,8.817,0,0,0-1.628-.2c-4.984-.215-9.058,3.315-9.23,7.71a8.563,8.563,0,0,0,8.481,8.745c4.991.2,9.063-3.343,9.261-8.021a7.7,7.7,0,0,0-1.288-4.5" transform="translate(23.551 5.117)" fill="#3466af"/>
  <path id="path183" d="M86.745,53.618c0,2.67-2.428,4.809-5.4,4.809s-5.4-2.141-5.4-4.809A5.053,5.053,0,0,1,80.8,48.839a9.118,9.118,0,0,0-1.628-.149c-4.983,0-8.915,3.7-8.915,8.1a8.559,8.559,0,0,0,8.834,8.381c4.988,0,8.916-3.686,8.916-8.381a7.469,7.469,0,0,0-1.461-4.419,4,4,0,0,1,.2,1.249" transform="translate(8.033 5.567)" fill="url(#linear-gradient-8)"/>
  <g id="g185" transform="translate(4.152 0.001)">
    <g id="g187">
      <path id="path196" d="M282.015,33.9,279.8,43.024l-2.044-10.1L250.391,26.9l.192,15.217,4.124.925-.3,2.745a.417.417,0,0,1-.116-.077,21.249,21.249,0,0,0-17.416-.721,24.02,24.02,0,0,0-5.544,3L227.2,21.923H209l-.5,3H189.346l-2.187,13.4-1.589-1.962a24.51,24.51,0,0,0-18.827-9l16.265-8.742L171.666,1.687,151.175,25.3l3.537,4.312a27.014,27.014,0,0,0-8.322,5.3L128.82,19.318l-6.143,11.774.236-11.315-27.47,8.775.7,14.758,4.674-1.212.691,7.479a22.217,22.217,0,0,0-17.711.176,26.241,26.241,0,0,0-4.924,2.813,20.924,20.924,0,0,0-.951-13.054A23.5,23.5,0,0,0,67.844,28.4a24.181,24.181,0,0,0-10.665-3.791c-9.505-1.661-20.919.045-32.153,4.831a79.236,79.236,0,0,0-11.457,5.974L9.177,38.2l2.652,4.479,8.23,13.91s2.518,4.262,2.535,4.26l4.451-2.187.621-.285,20.451,45.644L50.09,108.4l4.567-1.471,11.065-3.545,4.85-1.541L69.292,96.91l-5.877-22.56a49.553,49.553,0,0,0,4.725-3.968,20.351,20.351,0,0,0,.586,8.037A18.969,18.969,0,0,0,78.814,90.6a21.864,21.864,0,0,0,17.975.017,26.143,26.143,0,0,0,8.031-5.409l.835,8.985,19.378-2.854L125,73.965,165.5,93.978V74.6a31.943,31.943,0,0,0,4.95-.8,41.147,41.147,0,0,0,11.667-4.587l-1.7,10.407,21.832,3.436,1.2-7.856,5.7,10.534,3.486-6.716L213.9,90.044l24.753,4.364-1.313-8.327a23.034,23.034,0,0,0,12.806-2.437l-.986,8.86,16.474,2.325.123,6.756,17.179,5.392L305.3,39.564,282.015,33.9ZM185.3,43.921l1.136-1.207-1.372,8.5-3.578-3.223ZM170.792,9.2l6,8.147-17.146,8.5-1.185-1.8ZM57.253,72.026l6.841,26.248-11.072,3.537L30.3,51.071c-1.236.65-3.518,1.739-5.614,2.767L16.46,39.94a71.674,71.674,0,0,1,10.676-5.554c10.711-4.555,20.931-5.915,29.1-4.471a19.488,19.488,0,0,1,8.634,2.957,18.447,18.447,0,0,1,8.115,8.775C76.947,50.792,70.336,63.952,57.253,72.026Zm50.9-4.671a20.315,20.315,0,0,1-3.965,11.137,22.175,22.175,0,0,1-9.235,7.465c-9.606,4.07-19.211,0-21.777-9.12-2.486-8.818,3.3-19.315,12.605-23.324C91.729,51,97.693,51.6,101.966,54.5a13.879,13.879,0,0,1,5.591,7.853,10.667,10.667,0,0,1,.275,1.1,16.025,16.025,0,0,1,.325,3.9ZM160.42,85.912,120.243,65.817l.071,21.054-10.393,1.417L109.2,79.61A23.311,23.311,0,0,0,111.9,61.677a18.825,18.825,0,0,0-4.925-8.379L105.488,35.6l-4.667,1.21-.206-4.474,16.691-4.97,1.023,17.214,12.3-17.276,12.02,11.448-16.81,17.709,15.792,6.247a21.69,21.69,0,0,0,7.832,8.276,25.549,25.549,0,0,0,10.96,3.6l0,11.326h0ZM139.559,56.8l-5.588-2.156,5.21-5.064A24.96,24.96,0,0,0,139.559,56.8Zm43.723,5.264a33.322,33.322,0,0,1-14.057,6.672,27.542,27.542,0,0,1-3.73.61c-9.217.906-16.949-3.326-19.883-10.191a14.787,14.787,0,0,1-.86-2.571A18.053,18.053,0,0,1,150.3,38.359a23.07,23.07,0,0,1,10.029-5.084c8.78-2.117,16.512.563,21.253,6.38L164.855,57.463a12.055,12.055,0,0,0,4.27-.4,14.724,14.724,0,0,0,8.179-5.391l6.686,6.015,2.026,1.83A36.042,36.042,0,0,1,183.282,62.063Zm35.495,23.765L215.138,61.72l-5.147,13.3L202.284,58.4H202.2l-3.046,19.25-12.845-2.235,1.806-10.742c.485-.456.962-.913,1.431-1.4l4.163-4.287-4.046-3.624,4.3-25.582h12.96l3.244,17.709L213.8,26.968h9.27l3.847,25c-4.9,5.576-7.273,13.072-5.637,19.93A18.249,18.249,0,0,0,230.493,84c.471.237.959.472,1.463.675l.49,3.242-13.67-2.088Zm32.009-7.855a19.96,19.96,0,0,1-4.651,2.484,17.317,17.317,0,0,1-9.531.939,14.225,14.225,0,0,1-5.528-2.353,13.8,13.8,0,0,1-5.314-8.079,17.252,17.252,0,0,1,2.158-12.479,22.437,22.437,0,0,1,4.236-5.224,21.118,21.118,0,0,1,6.508-4.013c5.664-2.113,11.25-1.384,15.183,1.443a13.3,13.3,0,0,1,3.593,3.847,13.81,13.81,0,0,1,1.612,3.96,17.941,17.941,0,0,1-3.378,14.64A21.736,21.736,0,0,1,250.786,77.973ZM279.709,100.7l-9.5-2.829-.828-35.019-4.777,27.015L254.243,88.21l.742-7.778c6.766-5.718,10.353-14.737,8.388-22.911a17.97,17.97,0,0,0-5.348-9.167l.875-9.173-3.918-1.043.262-4.9L273.1,36.829l6,28.467,6.157-25.522,13.582,3L279.709,100.7Z" transform="translate(-9.177 -1.687)" fill="url(#linear-gradient-9)"/>
    </g>
  </g>
  <g id="flowRoot3115" transform="translate(281.503 99.333)">
    <path id="path3084" d="M238.813,85.707V83.063h-.988V82.71H240.2v.354h-.992v2.644Z" transform="translate(-237.825 -82.71)"/>
    <path id="path3086" d="M240.313,85.707v-3h.6l.71,2.122q.1.3.143.444.051-.164.159-.48l.718-2.086h.534v3h-.382V83.2l-.871,2.509h-.358l-.867-2.552v2.552Z" transform="translate(-237.541 -82.71)"/>
  </g>
</svg>
